# xmcd
#
# Track frame offsets: 
#        150
#        20014
#        34676
#        56066
#        71147
#        88918
#        106154
#        122723
#        133605
#        144290
#        159646
#        176409
#        189376
#        205867
#        231294
#
# Disc length: 3640 seconds
#
# Revision: 1
# Processed by: cddbd v1.5.2PL0 Copyright (c) Steve Scherf et al.
# Submitted via: ExactAudioCopy v1.3
#
DISCID=d30e360f
DTITLE=Various Artist - Inside Traxx 2002
DYEAR=2002
DGENRE=
TTITLE0=Travis Tritt - Start The Car
TTITLE1=Jo Dee Messina - Dare To Dream
TTITLE2=Dwight Yoakam - Fast As You 
TTITLE3=Tim McGraw - I Like It, I love It
TTITLE4=Anita Cochran - God Created Women
TTITLE5=Ken Mellons - I Can't Kick My Country
TTITLE6=Sawyer Brown - Can You Hear Me Now
TTITLE7=Dwight Yoakam - Sitting Pretty
TTITLE8=Hank Williams, Jr. - Go Girl Go
TTITLE9=Brad Wlof - Strickly Business
TTITLE10=Neal McCoy - What If
TTITLE11=Trini Triggs - You Never Can Tell
TTITLE12=Mark Tinney - Gypsy Blue Tattoo
TTITLE13=John Michael Montgomery - Friday At Five
TTITLE14=DATA
EXTD=
EXTT0=
EXTT1=
EXTT2=
EXTT3=
EXTT4=
EXTT5=
EXTT6=
EXTT7=
EXTT8=
EXTT9=
EXTT10=
EXTT11=
EXTT12=
EXTT13=
EXTT14=
PLAYORDER=
